<svg width=100% height=50px viewBox="0 0 90 60" xmlns="http://www.w3.org/2000/svg">
<g fill="#FFFFFF">
    <path fill-rule="evenodd" clip-rule="evenodd" d="M56.8843 37.3947L68.2604 35.4385L61.0907 25.6262C57.3743 29.0403 56.9121 33.1384 56.8843 37.3947ZM53.7548 38.1126C53.7365 37.6873 53.6717 37.0035 53.6717 36.5247C53.6717 31.6692 55.1625 26.9507 59.2086 23.0292L54.9948 17.7134L48.4724 38.6773L53.7548 38.1126ZM28.7206 17.2483L29.0821 16.0817L52.3131 16.0496L46.1332 35.7877L45.8665 33.7286H46.5776L46.4883 32.4183H43.379L43.468 33.6351H44.2676L44.4452 35.8816C44.4452 35.8816 28.8094 17.3418 28.7206 17.2483ZM18.4318 36.2092C21.5515 33.5983 23.9797 31.1101 25.7309 26.1306C28.4948 28.7722 30.0717 32.5931 30.0717 36.5247C30.0717 44.3322 24.0273 50.7004 16.6166 50.7004C9.20594 50.7004 3.16179 44.3322 3.16179 36.5247C3.16179 28.7168 9.20594 22.3488 16.6166 22.3488C18.9817 22.3488 21.3995 23.0685 23.349 24.281C22.0293 28.6742 20.7457 30.9401 16.6854 34.3839C15.6997 34.4277 14.9504 35.2614 14.9504 36.2558C14.9504 37.2871 15.7484 38.1279 16.727 38.1279C17.7056 38.1279 18.4318 37.2871 18.4318 36.2092ZM57.361 40.4067C58.8827 46.3814 64.2963 50.7008 70.2881 50.7008C77.6989 50.7008 83.7434 44.3326 83.7434 36.5247C83.7434 28.7168 77.6989 22.3484 70.2881 22.3484C67.9228 22.3484 65.1863 22.9367 63.1897 24.1681L70.4927 34.3839C71.3859 34.3987 72.1636 35.2395 72.1636 36.2558C72.1636 37.2871 71.3651 38.1279 70.3867 38.1279C70.1158 38.1279 69.8314 38.0548 69.5912 37.9356L57.361 40.4067ZM24.3096 20.9997L29.0759 7.1462L27.5656 4.43148L30.5862 0.968445H37.0714L37.1604 2.93403H31.4745L30.3196 4.24436L31.6521 6.77157L29.9765 13.0291H53.251L53.6065 11.8847C51.7359 11.6282 48.5097 10.4139 47.7391 9.70899C46.9686 9.00365 47.6433 8.35512 48.521 8.32473C53.1147 8.11914 59.9394 7.7137 61.236 7.70782C62.5322 7.7015 62.6651 8.38851 61.7972 9.38869C60.9294 10.3887 60.1708 11.2893 56.8829 11.826L55.9946 14.3531L61.5019 21.5417C64.0979 19.8813 67.2375 19.0174 70.2881 19.0174C79.4403 19.0174 86.9048 26.882 86.9048 36.5247C86.9048 46.1672 79.4403 54.0316 70.2881 54.0316C62.7588 54.0316 56.138 48.5608 54.1924 40.9995L49.1316 41.9577C48.9149 42.5862 48.41 43.0683 47.8068 43.4455L48.7095 47.9561H49.8643L49.9532 49.1729L46.3108 49.3599V48.0496H47.1993L46.0991 43.5416C44.4617 43.2595 43.6039 41.7829 44.0915 40.3173L27.5593 20.6178L26.8192 22.7315C30.8316 26.0612 33.2332 31.1904 33.2332 36.5247C33.2332 46.1672 25.7687 54.0316 16.6166 54.0316C7.46453 54.0316 0 46.1672 0 36.5247C0 26.882 7.46453 19.0174 16.6166 19.0174C19.2779 19.0174 22.0041 19.7017 24.3096 20.9997Z"/>
</g>
</svg>